HIERARCHY
ROOT Hips
{
	OFFSET 0.00000 0.00000 0.00000
	CHANNELS 6 Xposition Yposition Zposition Zrotation Yrotation Xrotation 
	JOINT LHipJoint
	{
		OFFSET 0 0 0
		CHANNELS 3 Zrotation Yrotation Xrotation
		JOINT LeftHip
		{
			OFFSET 1.48831 -1.59570 0.95625
			CHANNELS 3 Zrotation Yrotation Xrotation
			JOINT LeftKnee
			{
				OFFSET 2.20856 -6.06797 0.00000
				CHANNELS 3 Zrotation Yrotation Xrotation
				JOINT LeftAnkle
				{
					OFFSET 2.62924 -7.22379 0.00000
					CHANNELS 3 Zrotation Yrotation Xrotation
					JOINT LeftToe
					{
						OFFSET 0.16802 -0.46163 2.41673
						CHANNELS 3 Zrotation Yrotation Xrotation
						End Site
						{
							OFFSET 0.00000 -0.00000 1.23760
						}
					}
				}
			}
		}
	}
	JOINT RHipJoint
	{
		OFFSET 0 0 0
		CHANNELS 3 Zrotation Yrotation Xrotation
		JOINT RightHip
		{
			OFFSET -1.56796 -1.59570 0.95625
			CHANNELS 3 Zrotation Yrotation Xrotation
			JOINT RightKnee
			{
				OFFSET -2.29239 -6.29829 0.00000
				CHANNELS 3 Zrotation Yrotation Xrotation
				JOINT RightAnkle
				{
					OFFSET -2.66963 -7.33475 0.00000
					CHANNELS 3 Zrotation Yrotation Xrotation
					JOINT RightToe
					{
						OFFSET -0.18185 -0.49964 2.34359
						CHANNELS 3 Zrotation Yrotation Xrotation
						End Site
						{
							OFFSET -0.00000 -0.00000 1.20477
						}
					}
				}
			}
		}
	}
	JOINT lowerback
	{
		OFFSET 0 0 0
		CHANNELS 3 Zrotation Yrotation Xrotation
		JOINT Chest
		{
			OFFSET 0.03505 2.15832 -0.34324
			CHANNELS 3 Zrotation Yrotation Xrotation
			JOINT Chest2
			{
				OFFSET -0.01089 2.17963 0.04689
				CHANNELS 3 Zrotation Yrotation Xrotation
				JOINT lowerneck
				{
					OFFSET 0 0 0
					CHANNELS 3 Zrotation Yrotation Xrotation
					JOINT Neck
					{
						OFFSET 0.04686 1.69404 0.22159
						CHANNELS 3 Zrotation Yrotation Xrotation
						JOINT Head
						{
							OFFSET 0.00265 1.69305 -0.01513
							CHANNELS 3 Zrotation Yrotation Xrotation
							End Site
							{
								OFFSET -0.00415 1.80215 -0.03034
							}
						}
					}
				}
				JOINT LeftCollar
				{
					OFFSET 0 0 0
					CHANNELS 3 Zrotation Yrotation Xrotation
					JOINT LeftShoulder
					{
						OFFSET 3.67184 1.11724 -0.19002
CHANNELS 3 Zrotation Xrotation Yrotation
						JOINT LeftElbow
						{
OFFSET 0 -5.177140 -0.000000
CHANNELS 3 Zrotation Xrotation Yrotation
							JOINT LeftWrist
							{
OFFSET 0 -3.436790 -0.000000
CHANNELS 3 Zrotation Xrotation Yrotation
								JOINT lhand
								{
									OFFSET 0 0 0
CHANNELS 3 Zrotation Xrotation Yrotation
									JOINT LFingers
									{
OFFSET 0 -0.573120 -0.000000
CHANNELS 3 Zrotation Xrotation Yrotation
										End Site
										{
OFFSET 0 -0.462060 -0.000000
										}
									}
								}
								JOINT LThumb
								{
OFFSET 0 0.000000 0.000000
CHANNELS 3 Zrotation Xrotation Yrotation
									End Site
									{
OFFSET 0 -0.469120 0.469120
									}
								}
							}
						}
					}
				}
				JOINT RightCollar
				{
					OFFSET 0 0 0
					CHANNELS 3 Zrotation Yrotation Xrotation
					JOINT RightShoulder
					{
						OFFSET -3.59596 0.95831 -0.26050
CHANNELS 3 Zrotation Xrotation Yrotation
						JOINT RightElbow
						{
OFFSET 0 -5.239080 -0.000000
CHANNELS 3 Zrotation Xrotation Yrotation
							JOINT RightWrist
							{
OFFSET 0 -3.464850 -0.000000
CHANNELS 3 Zrotation Xrotation Yrotation
								JOINT rhand
								{
									OFFSET 0 0 0
CHANNELS 3 Zrotation Xrotation Yrotation
									JOINT RFingers
									{
OFFSET 0 -0.608750 -0.000000
CHANNELS 3 Zrotation Xrotation Yrotation
										End Site
										{
OFFSET 0 -0.490790 -0.000000
										}
									}
								}
								JOINT RThumb
								{
OFFSET 0 0.000000 0.000000
CHANNELS 3 Zrotation Xrotation Yrotation
									End Site
									{
OFFSET 0 -0.498290 0.498290
									}
								}
							}
						}
					}
				}
			}
		}
	}
}
MOTION
Frames: 12
Frame Time: 0.008333333333333333
44.684600 15.861600 -18.506400 -171.968000 -73.266500 173.140000 0.000000 0.000000 0.000000 -17.851800 4.474600 -5.986100 1.559200 7.880200 22.350800 1.367600 7.977800 -26.275500 0.002300 -0.307500 -0.845000 0.000000 0.000000 0.000000 24.216100 5.627000 -9.738500 -3.489400 -11.448100 33.806400 -2.290700 -3.951300 -30.212400 -0.037400 -1.248900 3.434000 3.058400 0.261600 -3.521000 0.634700 0.131300 2.528600 -1.049500 0.142900 4.596200 5.854100 3.738800 -8.722100 -2.404800 4.484100 6.111700 -1.573000 2.259700 3.784500 -0.000000 0.000000 0.000000 0.180700 -0.940800 -15.940700 13.421600 -21.901800 2.608500 16.985200 -12.980900 -10.475300 0.000000 0.000000 0.000000 -7.125000 0.000000 0.000000 -8.892300 40.761600 -0.937800 -0.000000 0.000000 0.000000 0.049300 3.090400 16.873000 -16.870100 -26.686200 -4.028800 -19.750600 5.468500 10.083600 0.000000 0.000000 0.000000 7.125000 0.000000 -0.000000 6.411600 40.597400 0.699300
44.685819 15.861294 -18.510948 -171.773761 -73.333395 172.948698 0.000000 0.000000 0.000000 -17.776938 4.440270 -6.010519 1.566062 7.896724 22.400859 1.363852 7.981077 -26.250151 0.003081 -0.356091 -0.978528 0.000000 0.000000 0.000000 24.300929 5.640134 -9.721938 -3.488192 -11.446241 33.800142 -2.292462 -4.044480 -30.266157 -0.037106 -1.244089 3.420554 3.094854 0.252849 -3.482549 0.631617 0.117730 2.565904 -1.074144 0.137671 4.612816 5.743033 3.637896 -8.776260 -2.274174 4.348229 6.139823 -1.516957 2.195203 3.790270 0.000000 0.000000 0.000000 0.217227 -0.915913 -15.982684 13.459455 -21.956646 2.622584 16.948029 -13.006726 -10.450896 0.000000 0.000000 0.000000 -7.125000 0.000000 0.000000 -8.920021 40.733146 -0.947071 0.000000 0.000000 0.000000 0.054481 3.047884 16.997012 -16.959188 -26.803910 -4.068926 -19.666653 5.247741 9.780577 0.000000 0.000000 0.000000 7.125000 0.000000 0.000000 6.436356 40.276270 0.763498
44.687124 15.861862 -18.517019 -171.775903 -73.403176 172.972761 0.000000 0.000000 0.000000 -17.756778 4.410435 -6.050365 1.567063 7.899165 22.408120 1.361954 7.935487 -26.204258 0.002987 -0.351856 -0.966869 0.000000 0.000000 0.000000 24.329126 5.687366 -9.738799 -3.491034 -11.450407 33.814455 -2.297270 -4.121088 -30.330961 -0.036513 -1.233490 3.391433 3.047805 0.241295 -3.468307 0.621609 0.105020 2.591179 -1.059044 0.130392 4.630389 5.682961 3.560043 -8.887811 -2.193157 4.237824 6.176359 -1.484714 2.142378 3.815310 0.000000 0.000000 0.000000 0.229219 -0.992969 -15.838252 13.358479 -21.810235 2.584940 16.946008 -12.897376 -10.399979 0.000000 0.000000 0.000000 -7.125000 0.000000 0.000000 -8.912224 40.680668 -0.957831 0.000000 0.000000 0.000000 0.050616 2.974866 17.106026 -16.995395 -26.851703 -4.085225 -17.607103 3.967732 6.979309 0.000000 0.000000 0.000000 7.125000 0.000000 0.000000 7.787133 37.197852 1.506380
44.688024 15.862443 -18.523191 -171.788287 -73.465253 173.003765 0.000000 0.000000 0.000000 -17.740646 4.393208 -6.080774 1.567062 7.899224 22.408534 1.359328 7.900949 -26.161387 0.003081 -0.358382 -0.984673 0.000000 0.000000 0.000000 24.349682 5.715016 -9.757902 -3.494053 -11.454838 33.829544 -2.301238 -4.178189 -30.381661 -0.036400 -1.231238 3.385314 3.003672 0.235414 -3.456475 0.609337 0.100019 2.611673 -1.047399 0.127085 4.644511 5.612637 3.478479 -8.952143 -2.105517 4.126053 6.188481 -1.448988 2.088858 3.822019 0.000000 0.000000 0.000000 0.246639 -1.011997 -15.769218 13.310224 -21.740089 2.567065 16.953377 -12.845415 -10.369854 0.000000 0.000000 0.000000 -7.125000 0.000000 0.000000 -8.900099 40.650254 -0.963248 0.000000 0.000000 0.000000 0.046885 2.945998 17.234763 -17.050585 -26.924349 -4.110240 -17.286933 3.741942 6.546052 0.000000 0.000000 0.000000 7.125000 0.000000 0.000000 7.995214 36.729725 1.639355
44.688549 15.862675 -18.528964 -171.778568 -73.530422 173.005299 0.000000 0.000000 0.000000 -17.719878 4.378551 -6.102091 1.568097 7.901618 22.415679 1.357205 7.866787 -26.121924 0.003349 -0.373658 -1.026610 0.000000 0.000000 0.000000 24.367309 5.695672 -9.776692 -3.495748 -11.457372 33.838339 -2.303497 -4.207388 -30.408839 -0.036076 -1.226115 3.371217 2.970620 0.228688 -3.442884 0.598543 0.093164 2.633931 -1.040455 0.123108 4.659649 5.534261 3.395970 -8.983024 -2.020888 4.016149 6.174293 -1.413194 2.035834 3.812891 0.000000 0.000000 0.000000 0.257958 -1.018321 -15.707537 13.271893 -21.684299 2.552900 16.961906 -12.800862 -10.347327 0.000000 0.000000 0.000000 -7.125000 0.000000 0.000000 -8.888472 40.627876 -0.966946 0.000000 0.000000 0.000000 0.042257 2.926188 17.352524 -17.093635 -26.981065 -4.129721 -17.256528 3.679478 6.520292 0.000000 0.000000 0.000000 7.125000 0.000000 0.000000 8.017046 36.701218 1.649451
44.688432 15.862463 -18.534007 -171.690618 -73.601000 172.920983 0.000000 0.000000 0.000000 -17.678469 4.347003 -6.109675 1.570456 7.907358 22.433006 1.356868 7.832883 -26.096321 0.003500 -0.382866 -1.051987 0.000000 0.000000 0.000000 24.401636 5.641160 -9.787126 -3.495727 -11.457290 33.838266 -2.304032 -4.226794 -30.421004 -0.035427 -1.214479 3.339198 2.968319 0.220801 -3.421943 0.592981 0.083008 2.655096 -1.045709 0.118225 4.669358 5.448438 3.296136 -8.980160 -1.946407 3.886984 6.156035 -1.381056 1.972838 3.795153 0.000000 0.000000 0.000000 0.259608 -1.007523 -15.651486 13.240239 -21.638286 2.541203 16.962052 -12.763585 -10.325173 0.000000 0.000000 0.000000 -7.125000 0.000000 0.000000 -8.884222 40.605095 -0.971499 0.000000 0.000000 0.000000 0.040354 2.905957 17.431908 -17.106049 -26.997344 -4.135359 -17.240270 3.644504 6.507962 0.000000 0.000000 0.000000 7.125000 0.000000 0.000000 8.029040 36.687579 1.654599
44.688076 15.861976 -18.538848 -171.535973 -73.670487 172.770451 0.000000 0.000000 0.000000 -17.618504 4.296847 -6.112124 1.573429 7.914468 22.454627 1.358567 7.797122 -26.084142 0.003314 -0.372220 -1.022718 0.000000 0.000000 0.000000 24.456653 5.590779 -9.788695 -3.494343 -11.455295 33.831213 -2.304134 -4.255724 -30.435047 -0.034414 -1.198141 3.294067 2.986008 0.214518 -3.403031 0.593372 0.073465 2.673074 -1.055859 0.114199 4.677135 5.352913 3.171759 -8.941332 -1.880829 3.728986 6.129997 -1.352434 1.895072 3.766608 0.000000 0.000000 0.000000 0.252665 -0.984601 -15.603016 13.209076 -21.592817 2.529708 16.948130 -12.739030 -10.290738 0.000000 0.000000 0.000000 -7.125000 0.000000 0.000000 -8.889945 40.568471 -0.980187 0.000000 0.000000 0.000000 0.044177 2.884782 17.459397 -17.086857 -26.972208 -4.126650 -17.218025 3.642278 6.484703 0.000000 0.000000 0.000000 7.125000 0.000000 0.000000 8.044379 36.662245 1.662844
44.687689 15.861544 -18.543901 -171.400871 -73.737290 172.644095 0.000000 0.000000 0.000000 -17.565192 4.239079 -6.113123 1.575589 7.919701 22.470358 1.360889 7.762417 -26.077742 0.002889 -0.347408 -0.954547 0.000000 0.000000 0.000000 24.509208 5.559286 -9.786588 -3.492811 -11.453000 33.823421 -2.307801 -4.277091 -30.467631 -0.034634 -1.201393 3.303112 2.994266 0.208655 -3.393810 0.591599 0.064954 2.689637 -1.062945 0.110511 4.688869 5.257837 3.028405 -8.859995 -1.825855 3.548853 6.071221 -1.329195 1.805749 3.717835 0.000000 0.000000 0.000000 0.241008 -0.954636 -15.543329 13.183043 -21.554820 2.520155 16.922806 -12.705701 -10.269489 0.000000 0.000000 0.000000 -7.125000 0.000000 0.000000 -8.907949 40.544422 -0.987589 0.000000 0.000000 0.000000 0.059105 2.870164 17.451229 -17.052026 -26.926268 -4.110841 -17.205055 3.666428 6.474055 0.000000 0.000000 0.000000 7.125000 0.000000 0.000000 8.053756 36.650443 1.667189
44.687400 15.861549 -18.549279 -171.346583 -73.800467 172.600045 0.000000 0.000000 0.000000 -17.536526 4.192732 -6.116086 1.576151 7.921102 22.474655 1.360506 7.742263 -26.061141 0.002800 -0.339589 -0.933121 0.000000 0.000000 0.000000 24.542598 5.559186 -9.781185 -3.492151 -11.452051 33.820051 -2.315116 -4.298599 -30.522498 -0.035994 -1.223998 3.365370 2.976905 0.202670 -3.384503 0.581453 0.058318 2.702713 -1.064203 0.106961 4.696842 5.144984 2.892987 -8.798764 -1.744588 3.378016 6.014531 -1.292977 1.721551 3.673395 0.000000 0.000000 0.000000 0.218851 -0.896447 -15.452958 13.191593 -21.567294 2.523261 16.891148 -12.641042 -10.294466 0.000000 0.000000 0.000000 -7.125000 0.000000 0.000000 -8.940071 40.567418 -0.986087 0.000000 0.000000 0.000000 0.088310 2.865837 17.417840 -17.007546 -26.867758 -4.090789 -17.203933 3.702678 6.471423 0.000000 0.000000 0.000000 7.125000 0.000000 0.000000 8.054267 36.647623 1.667849
44.687200 15.861800 -18.554701 -171.348861 -73.854597 172.613007 0.000000 0.000000 0.000000 -17.523412 4.166423 -6.121345 1.575814 7.920228 22.472142 1.358242 7.729812 -26.035665 0.002986 -0.351876 -0.966726 0.000000 0.000000 0.000000 24.562361 5.580578 -9.774256 -3.492700 -11.452886 33.822930 -2.322773 -4.328623 -30.582999 -0.037172 -1.244588 3.422165 2.944148 0.199385 -3.370282 0.565853 0.056872 2.710330 -1.062056 0.105543 4.696456 5.012064 2.772470 -8.769880 -1.631826 3.225105 5.969474 -1.241029 1.647025 3.639192 0.000000 0.000000 0.000000 0.192309 -0.821383 -15.360981 13.216447 -21.603491 2.532444 16.874054 -12.576763 -10.347380 0.000000 0.000000 0.000000 -7.125000 0.000000 0.000000 -8.964918 40.620280 -0.977056 0.000000 0.000000 0.000000 0.125538 2.878006 17.369718 -16.955559 -26.799169 -4.067309 -17.211745 3.746896 6.475918 0.000000 0.000000 0.000000 7.125000 0.000000 0.000000 8.048427 36.652675 1.665599
44.687200 15.861863 -18.559951 -171.371581 -73.896273 172.647775 0.000000 0.000000 0.000000 -17.514247 4.157392 -6.134358 1.575983 7.920639 22.473316 1.355625 7.715944 -26.006794 0.003373 -0.374253 -1.028189 0.000000 0.000000 0.000000 24.575099 5.597574 -9.775945 -3.494366 -11.455248 33.831065 -2.327295 -4.361807 -30.626025 -0.037263 -1.245515 3.424491 2.907624 0.199629 -3.356599 0.549583 0.060424 2.715980 -1.058196 0.106466 4.694556 4.862575 2.639746 -8.736236 -1.510031 3.057524 5.919871 -1.184029 1.565205 3.601789 0.000000 0.000000 0.000000 0.174809 -0.776331 -15.291112 13.204901 -21.586698 2.528165 16.872057 -12.553703 -10.354715 0.000000 0.000000 0.000000 -7.125000 0.000000 0.000000 -8.968031 40.627651 -0.975785 0.000000 0.000000 0.000000 0.159752 2.902902 17.329822 -16.899235 -26.724723 -4.041889 -17.219366 3.796170 6.491586 0.000000 0.000000 0.000000 7.125000 0.000000 0.000000 8.044237 36.669459 1.661388
44.687430 15.861800 -18.565086 -171.392000 -73.926768 172.683324 0.000000 0.000000 0.000000 -17.501960 4.157149 -6.162571 1.577783 7.924888 22.486224 1.353568 7.696594 -25.978581 0.003791 -0.396130 -1.088434 0.000000 0.000000 0.000000 24.586329 5.603478 -9.791161 -3.496081 -11.457802 33.839897 -2.330002 -4.380489 -30.651273 -0.036940 -1.241024 3.412243 2.873530 0.203076 -3.347601 0.533913 0.067711 2.724150 -1.054830 0.109395 4.698046 4.716693 2.481683 -8.676033 -1.406434 2.858375 5.844063 -1.135806 1.466904 3.550086 0.000000 0.000000 0.000000 0.171449 -0.786061 -15.241162 13.140243 -21.492283 2.504388 16.884908 -12.560095 -10.320596 0.000000 0.000000 0.000000 -7.125000 0.000000 0.000000 -8.950476 40.593657 -0.981367 0.000000 0.000000 0.000000 0.191379 2.911159 17.284972 -16.824758 -26.626165 -4.008454 -17.214164 3.866553 6.501839 0.000000 0.000000 0.000000 7.125000 0.000000 0.000000 8.050025 36.679709 1.660581
